<svg width="34" height="44" viewBox="0 0 34 44" fill="none" xmlns="http://www.w3.org/2000/svg">
<path fill-rule="evenodd" clip-rule="evenodd" d="M0 0.193614C0.170787 5.48347 0.133776 10.2432 0.1003 14.5483C0.09149 15.6813 0.0829248 16.7828 0.0784564 17.8542C0.057359 22.9126 0.123582 27.4268 0.77758 31.1398C1.43699 34.8835 2.76699 38.2641 5.63734 40.6239C8.48485 42.965 12.3369 43.8797 17.0928 43.8797C21.7101 43.8797 25.5094 43.2137 28.3402 41.2012C31.3014 39.0959 32.6375 35.9388 33.2685 32.3357C33.8869 28.8049 33.9074 24.3682 33.8478 19.1808C33.8371 18.2445 33.8235 17.2776 33.8094 16.2788V16.2785C33.7442 11.6467 33.6693 6.32736 33.8249 0.172634L27.8268 0.0209802C27.6679 6.30507 27.7449 11.7599 27.8103 16.3953V16.3953C27.8243 17.3841 27.8377 18.3355 27.8482 19.2497C27.909 24.5417 27.8643 28.4123 27.3585 31.3006C26.8653 34.1166 26.0181 35.4903 24.8636 36.311C23.5787 37.2245 21.3298 37.8797 17.0928 37.8797C12.9946 37.8797 10.7668 37.0736 9.44773 35.9892C8.15151 34.9235 7.22824 33.174 6.68662 30.099C6.13959 26.9933 6.05704 23.0003 6.0784 17.8792C6.08272 16.8434 6.09114 15.7662 6.09987 14.6491C6.13358 10.3337 6.17195 5.42251 5.99688 0L0 0.193614ZM14.6763 0.0968018V26.8166H20.6763V0.0968018H14.6763Z" fill="url(#paint0_linear_2001_144)"/>
<defs>
<linearGradient id="paint0_linear_2001_144" x1="16.935" y1="0" x2="16.935" y2="43.8797" gradientUnits="userSpaceOnUse">
<stop stop-color="#5153C4"/>
<stop offset="0.5" stop-color="#597EE6"/>
<stop offset="1" stop-color="#5AC0CC"/>
</linearGradient>
</defs>
</svg>
